HIERARCHY
ROOT Hips
{
	OFFSET 0.000000 0.000000 0.000000
	CHANNELS 6 Xposition Yposition Zposition Zrotation Yrotation Xrotation 
	JOINT LeftUpLeg_virtual
	{
		OFFSET 0.000000 0.000000 0.000000
		CHANNELS 3 Zrotation Yrotation Xrotation
		JOINT LeftUpLeg
		{
			OFFSET 10.205400 -3.823500 0.155100
			CHANNELS 3 Zrotation Yrotation Xrotation
			JOINT LeftLeg
			{
				OFFSET 0.708757 -12.982077 0.567790
				CHANNELS 3 Zrotation Yrotation Xrotation
				JOINT LeftFoot
				{
					OFFSET -0.708756 -10.717838 -2.184338
					CHANNELS 3 Zrotation Yrotation Xrotation
					JOINT LeftToeBase
					{
						OFFSET 0.108149 -7.191104 7.560241
						CHANNELS 3 Zrotation Yrotation Xrotation
						End Site
						{
							OFFSET 0.000000 0.000000 0.000000
						}
					}
				}
			}
		}
	}
	JOINT RightUpLeg_virtual
	{
		OFFSET 0.000000 0.000000 0.000000
		CHANNELS 3 Zrotation Yrotation Xrotation
		JOINT RightUpLeg
		{
			OFFSET -10.205400 -3.823500 0.005500
			CHANNELS 3 Zrotation Yrotation Xrotation
			JOINT RightLeg
			{
				OFFSET -0.708756 -12.982134 0.610632
				CHANNELS 3 Zrotation Yrotation Xrotation
				JOINT RightFoot
				{
					OFFSET 0.708754 -10.717769 -1.945823
					CHANNELS 3 Zrotation Yrotation Xrotation
					JOINT RightToeBase
					{
						OFFSET -0.108140 -7.191069 7.372968
						CHANNELS 3 Zrotation Yrotation Xrotation
						End Site
						{
							OFFSET 0.000000 0.000000 0.000000
						}
					}
				}
			}
		}
	}
	JOINT Spine_virtual
	{
		OFFSET 0.000000 0.000000 0.000000
		CHANNELS 3 Zrotation Yrotation Xrotation
		JOINT Spine
		{
			OFFSET 0.000000 6.876099 0.125700
			CHANNELS 3 Zrotation Yrotation Xrotation
			JOINT Spine1
			{
				OFFSET 0.000000 8.022060 0.146608
				CHANNELS 3 Zrotation Yrotation Xrotation
				JOINT Spine2
				{
					OFFSET 0.000000 9.168068 0.167552
					CHANNELS 3 Zrotation Yrotation Xrotation
					JOINT Neck_virtual
					{
						OFFSET 0.000000 0.000000 0.000000
						CHANNELS 3 Zrotation Yrotation Xrotation
						JOINT Neck
						{
							OFFSET 0.000000 10.314075 0.188496
							CHANNELS 3 Zrotation Yrotation Xrotation
							JOINT Head
							{
								OFFSET 0.000000 7.643700 -2.377400
								CHANNELS 3 Zrotation Yrotation Xrotation
								End Site
								{
									OFFSET 0.000000 0.000000 0.000000
								}
							}
						}
					}
					JOINT LeftShoulder_virtual
					{
						OFFSET 0.000000 0.000000 0.000000
						CHANNELS 3 Zrotation Yrotation Xrotation
						JOINT LeftShoulder
						{
							OFFSET 4.392200 8.824978 0.174984
							CHANNELS 3 Zrotation Yrotation Xrotation
							JOINT LeftArm
							{
								OFFSET 8.771219 -2.981674 -0.026999
								CHANNELS 3 Zrotation Yrotation Xrotation
								JOINT LeftForeArm
								{
									OFFSET 8.512804 0.000000 -0.000000
									CHANNELS 3 Zrotation Yrotation Xrotation
									JOINT LeftHand
									{
										OFFSET 18.484802 0.000000 -0.000000
										CHANNELS 3 Zrotation Yrotation Xrotation
										End Site
										{
											OFFSET 0.000000 0.000000 0.000000
										}
									}
								}
							}
						}
					}
					JOINT RightShoulder_virtual
					{
						OFFSET 0.000000 0.000000 0.000000
						CHANNELS 3 Zrotation Yrotation Xrotation
						JOINT RightShoulder
						{
							OFFSET -4.392200 8.824993 0.141379
							CHANNELS 3 Zrotation Yrotation Xrotation
							JOINT RightArm
							{
								OFFSET -8.771282 -2.981682 -0.094208
								CHANNELS 3 Zrotation Yrotation Xrotation
								JOINT RightForeArm
								{
									OFFSET -8.494598 0.000000 0.000000
									CHANNELS 3 Zrotation Yrotation Xrotation
									JOINT RightHand
									{
										OFFSET -18.483803 0.000000 0.000001
										CHANNELS 3 Zrotation Yrotation Xrotation
										End Site
										{
											OFFSET 0.000000 0.000000 0.000000
										}
									}
								}
							}
						}
					}
				}
			}
		}
	}
}
MOTION
Frames: 5
Frame Time: 0.033333
-8.222201 27.627821 -14.910838 -179.952767 -0.995937 -179.929313 -0.332180 -7.236304 8.055713 -11.276910 1.371946 -75.221276 14.071308 -2.756785 75.282031 -9.822673 -1.301528 -7.352585 0.000000 0.000000 0.000000 3.758900 -4.948246 8.230526 3.263588 -6.119455 -76.039000 1.383139 2.597967 62.107771 -0.314207 -1.214370 7.260576 0.000000 0.000000 0.000000 0.104125 -1.465097 16.006975 -7.507256 1.368769 12.462857 -1.401839 -0.693594 2.183192 0.013791 0.028629 0.015808 -2.416693 1.231846 9.220655 -15.246189 -0.867402 2.566357 0.000000 0.000000 0.000000 -0.897621 2.267690 5.043593 20.817780 -17.847788 -5.938949 -95.262773 -16.239784 5.798062 3.342988 -21.368850 6.940858 0.000000 0.000000 0.000000 -3.899305 2.977181 4.939167 -0.109373 25.480417 -2.166666 62.846538 7.526295 28.450770 -6.994036 42.521151 -10.418600 0.000000 0.000000 0.000000 
-8.215476 27.613243 -14.825691 179.920939 -0.777436 -179.967971 -0.532633 -7.323041 7.881911 -11.069425 1.708483 -74.964188 14.314180 -2.467732 74.770620 -10.053026 -0.826542 -6.621791 0.000000 0.000000 0.000000 3.656527 -4.998066 7.935689 3.377949 -5.970925 -75.774774 1.424890 2.558500 61.741570 -0.541665 -1.229108 7.758534 0.000000 0.000000 0.000000 -0.087124 -1.529477 15.900204 -7.458929 1.436584 12.475010 -1.453382 -0.706535 2.154598 -0.009100 0.028671 0.028406 -2.373933 1.139051 9.113684 -15.053664 -0.556382 2.590777 0.000000 0.000000 0.000000 -0.848611 2.247606 4.898711 20.729711 -17.751761 -5.962295 -95.139105 -15.834856 6.011551 3.285842 -21.332899 6.926857 0.000000 0.000000 0.000000 -3.883834 2.955029 4.869898 0.033059 25.528645 -2.182047 62.498888 7.424674 28.655345 -7.145510 42.905780 -10.540864 0.000000 0.000000 0.000000 
-8.215758 27.592621 -14.719281 179.981550 -0.665681 179.976058 -0.491505 -7.543982 7.575829 -10.532170 1.956768 -74.581725 14.419612 -2.029454 72.504521 -9.766674 -0.575472 -3.503338 0.000000 0.000000 0.000000 3.712715 -5.203336 7.758265 3.648873 -5.832661 -75.788250 1.135713 2.666839 61.230522 -0.481524 -0.937203 8.455720 0.000000 0.000000 0.000000 -0.089954 -1.626959 15.881716 -7.336099 1.523014 12.457627 -1.431780 -0.753182 2.091643 0.031177 -0.003988 -0.001681 -2.422658 1.228038 9.033255 -14.767868 -0.587989 2.705510 0.000000 0.000000 0.000000 -0.946879 2.255567 4.907193 20.697787 -17.769034 -5.963622 -95.044036 -15.524941 6.261471 3.238615 -21.255479 6.870447 0.000000 0.000000 0.000000 -3.963585 2.943722 4.780934 0.202335 25.585124 -2.094274 62.205156 7.254952 28.834596 -7.389239 43.394121 -10.726473 0.000000 0.000000 0.000000 
-8.226372 27.581230 -14.590856 179.892511 -0.372223 179.971373 -0.676488 -7.615219 7.361274 -10.404377 2.217192 -74.317103 14.473241 -2.084088 70.183363 -9.672512 -0.223097 -0.795474 0.000000 0.000000 0.000000 3.636089 -5.215219 7.647583 3.829873 -5.811637 -75.827203 1.032413 2.546531 60.509274 -0.502493 -0.750773 9.334703 0.000000 0.000000 0.000000 -0.206593 -1.663756 15.961095 -7.304605 1.612088 12.387112 -1.446118 -0.792457 2.032355 -0.007879 -0.019924 0.006529 -2.350384 1.111195 8.866215 -14.522695 -0.265648 2.798363 0.000000 0.000000 0.000000 -0.873473 2.201016 4.778793 20.646782 -17.733562 -5.927807 -94.846548 -15.185438 6.453473 3.199926 -21.356431 6.742308 0.000000 0.000000 0.000000 -3.899262 2.882673 4.651886 0.284671 25.647905 -2.116994 61.954925 7.197447 28.999819 -7.575121 43.813024 -10.860449 0.000000 0.000000 0.000000 
-8.242545 27.578440 -14.466470 179.951770 -0.035576 179.983476 -0.678030 -7.535578 7.139479 -10.219529 2.261945 -74.169694 14.502971 -2.160085 69.062693 -9.670080 -0.078558 0.308544 0.000000 0.000000 0.000000 3.681069 -5.086406 7.635694 4.009914 -5.778956 -75.863082 0.910475 2.426869 59.702506 -0.431224 -0.591492 10.202155 0.000000 0.000000 0.000000 -0.314894 -1.708017 16.099794 -7.178431 1.651086 12.305697 -1.388259 -0.845515 1.963442 -0.004658 -0.022025 -0.021137 -2.377766 1.179746 8.760957 -14.182767 -0.101325 2.862731 0.000000 0.000000 0.000000 -0.907376 2.234829 4.695653 20.618266 -17.605397 -5.880000 -94.634088 -14.935126 6.581137 3.155730 -21.622849 6.485537 0.000000 0.000000 0.000000 -3.977544 2.881924 4.627142 0.306475 25.738791 -2.261311 61.703225 7.175156 29.128045 -7.679054 44.146047 -10.930645 0.000000 0.000000 0.000000 
